<?xml version="1.0" encoding="UTF-8"?>
<svg id="Layer_1" xmlns="http://www.w3.org/2000/svg" version="1.1" viewBox="0 0 256 256">
  <!-- Generator: Adobe Illustrator 29.4.0, SVG Export Plug-In . SVG Version: 2.1.0 Build 152)  -->
  <defs>
    <style>
      .st0 {
        fill: #1d1d1b;
      }
    </style>
  </defs>
  <path class="st0" d="M233.19,18.61l-10.25-11.43-11.43,10.24,10.21,11.41-11.4,10.22,10.22,11.41-10.55,9.44c-16.92-17.22-39.17-28.41-63.52-31.59-4.71-.62-9.5-.94-14.33-.94-60.24,0-109.24,49.01-109.24,109.25s49.01,109.25,109.24,109.25c16.99,0,33.28-3.8,48.42-11.29l-7.33-14.8c-12.83,6.35-26.65,9.57-41.09,9.57-51.13,0-92.73-41.6-92.73-92.73s41.6-92.73,92.73-92.73c4.47,0,8.89.32,13.22.93,19.82,2.84,38.09,12,52.21,26.07l-9.67,8.53-10.12-11.49-11.52,10.16,10.16,11.51,11.48-10.12,10.13,11.48,9.48-8.36c.69.96,1.37,1.93,2.02,2.92h0c1.91,2.89,3.67,5.91,5.27,9.05l14.71-7.5h0c-2.8-5.49-6.01-10.65-9.58-15.49l10.86-9.73-10.22-11.4,11.4-10.21-10.21-11.4,11.41-10.21v-.02Z"/>
  <polygon class="st0" points="154.74 88.25 166.26 78.1 156.1 66.59 144.59 76.73 154.74 88.25"/>
</svg>